# xmcd
#
# Track frame offsets:
#	150
#	44714
#	46746
#	64177
#	82410
#	101448
#	120964
#	140619
#	162139
#	185644
#	209486
#	236535
#	266648
#	296783
#
# Disc length: 4432 seconds
#
# Revision: 1
# Processed by: cddbd v1.5.2PL0 Copyright (c) Steve Scherf et al.
# Submitted via: audiograbber 1.83.01
#
DISCID=d5114e0e
DTITLE=Hobo Blues Band - Senkifalva
DYEAR=1900
DGENRE=Blues
TTITLE0=Túlélo trallalla
TTITLE1=Végbeszéd
TTITLE2=Meddig fúj az a szél
TTITLE3=A ripacsok bevonulása
TTITLE4=Titkosügynök
TTITLE5=Üvöltö vadállat
TTITLE6=Szakadék szélén
TTITLE7=Szabad a szó
TTITLE8=Harangjáték
TTITLE9=Az a fekete madár
TTITLE10=Himalája
TTITLE11=Senkifalva
TTITLE12=Szélcsend idején
TTITLE13=Gyémánt a harmaton
EXTD=
EXTT0=
EXTT1=
EXTT2=
EXTT3=
EXTT4=
EXTT5=
EXTT6=
EXTT7=
EXTT8=
EXTT9=
EXTT10=
EXTT11=
EXTT12=
EXTT13=
PLAYORDER=
